<svg width="34" height="18" viewBox="0 0 34 18" fill="none" xmlns="http://www.w3.org/2000/svg">
<path d="M7.968 17.192C6.576 17.192 5.336 16.912 4.248 16.352C3.16 15.776 2.304 14.984 1.68 13.976C1.072 12.968 0.768 11.824 0.768 10.544C0.768 9.248 1.072 8.104 1.68 7.112C2.304 6.104 3.16 5.32 4.248 4.76C5.336 4.184 6.576 3.896 7.968 3.896C9.328 3.896 10.512 4.184 11.52 4.76C12.528 5.32 13.272 6.128 13.752 7.184L10.848 8.744C10.512 8.136 10.088 7.688 9.576 7.4C9.08 7.112 8.536 6.968 7.944 6.968C7.304 6.968 6.728 7.112 6.216 7.4C5.704 7.688 5.296 8.096 4.992 8.624C4.704 9.152 4.56 9.792 4.56 10.544C4.56 11.296 4.704 11.936 4.992 12.464C5.296 12.992 5.704 13.4 6.216 13.688C6.728 13.976 7.304 14.12 7.944 14.12C8.536 14.12 9.08 13.984 9.576 13.712C10.088 13.424 10.512 12.968 10.848 12.344L13.752 13.928C13.272 14.968 12.528 15.776 11.52 16.352C10.512 16.912 9.328 17.192 7.968 17.192Z" fill="#FF6F61"/>
<path d="M19.6517 17V3.368H14.2757V0.199999H28.9157V3.368H23.5397V17H19.6517ZM31.3628 17.192C30.7228 17.192 30.1708 16.976 29.7068 16.544C29.2588 16.096 29.0348 15.528 29.0348 14.84C29.0348 14.152 29.2588 13.6 29.7068 13.184C30.1708 12.752 30.7228 12.536 31.3628 12.536C32.0188 12.536 32.5708 12.752 33.0188 13.184C33.4668 13.6 33.6908 14.152 33.6908 14.84C33.6908 15.528 33.4668 16.096 33.0188 16.544C32.5708 16.976 32.0188 17.192 31.3628 17.192Z" fill="#AD00FF"/>
</svg>
